<?xml version="1.0" encoding="utf-8"?>
<!-- Generator: Adobe Illustrator 15.1.0, SVG Export Plug-In . SVG Version: 6.00 Build 0)  -->
<!DOCTYPE svg PUBLIC "-//W3C//DTD SVG 1.1//EN" "http://www.w3.org/Graphics/SVG/1.1/DTD/svg11.dtd">
<svg version="1.1" xmlns="http://www.w3.org/2000/svg" xmlns:xlink="http://www.w3.org/1999/xlink" x="0px" y="0px" width="612px"
	 height="472.702px" viewBox="0 0 612 472.702" enable-background="new 0 0 612 472.702" xml:space="preserve">
<g id="total_area">
	<g opacity="0.2">
		<polygon fill="#FFDF7F" points="370.318,4.577 370.318,27.896 282.066,27.896 282.066,173.33 4.206,173.33 4.206,299.879 
			282.066,299.879 282.066,444.125 385.365,444.125 385.365,466.909 498.854,466.909 498.854,33.259 498.854,27.896 498.854,4.577 
					"/>
	</g>
</g>
<g id="blockage">
	<polygon fill="#FFDF7F" points="447.55,438.443 447.55,444.865 453.472,444.865 453.472,459.281 447.55,459.281 447.55,466.909 
		458.842,466.909 458.842,438.443 	"/>
	<g>
		<polygon fill="#FFDF7F" points="386.306,439.305 386.306,424.654 355.547,424.654 355.547,424.625 345.89,424.625 345.89,432.7 
			350.009,432.7 350.009,442.711 385.365,442.711 385.365,466.909 435.509,466.909 435.509,439.305 		"/>
	</g>
	
		<polyline fill="none" stroke="#FFDF7F" stroke-width="2" stroke-linecap="round" stroke-linejoin="round" stroke-miterlimit="10" points="
		48.595,298.411 48.423,257.845 183.309,257.845 	"/>
	
		<line fill="none" stroke="#FFDF7F" stroke-width="2" stroke-linecap="round" stroke-linejoin="round" stroke-miterlimit="10" x1="124.296" y1="298.851" x2="124.296" y2="259.378"/>
	
		<line fill="none" stroke="#FFDF7F" stroke-width="2" stroke-linecap="round" stroke-linejoin="round" stroke-miterlimit="10" x1="149.747" y1="298.805" x2="149.747" y2="258.913"/>
	
		<line fill="none" stroke="#FFDF7F" stroke-width="2" stroke-linecap="round" stroke-linejoin="round" stroke-miterlimit="10" x1="167.104" y1="298.851" x2="167.104" y2="258.196"/>
	<polyline fill="none" stroke="#FFDF7F" stroke-linecap="round" stroke-linejoin="round" stroke-miterlimit="10" points="
		184.075,258.049 240.709,258.049 240.709,298.851 	"/>
	
		<line fill="none" stroke="#FFDF7F" stroke-width="2" stroke-linecap="round" stroke-linejoin="round" stroke-miterlimit="10" x1="44.609" y1="241.32" x2="56.987" y2="241.32"/>
	
		<line fill="none" stroke="#FFDF7F" stroke-width="2" stroke-linecap="round" stroke-linejoin="round" stroke-miterlimit="10" x1="16.959" y1="214.06" x2="35.494" y2="214.06"/>
	
		<line fill="none" stroke="#FFDF7F" stroke-width="2" stroke-linecap="round" stroke-linejoin="round" stroke-miterlimit="10" x1="44.897" y1="214.06" x2="56.987" y2="214.06"/>
	<rect x="466.288" y="424.519" fill="#FFDF7F" width="28.071" height="2.731"/>
	<g>
		<rect x="296.008" y="143.671" fill="#FFDF7F" width="60.18" height="98.488"/>
	</g>
	<g>
		<polygon fill="#FFDF7F" points="123.572,173.368 123.572,173.412 115.658,173.412 115.658,184.363 123.572,184.363 
			123.572,232.105 115.632,232.105 115.632,242.243 123.572,242.243 132.5,242.243 272.695,242.243 272.695,173.368 		"/>
	</g>
	<g>
		<polygon fill="#FFDF7F" points="67.644,173.324 56.987,173.324 56.987,242.311 67.644,242.311 67.644,173.324 		"/>
	</g>
	<rect x="466.596" y="52.685" fill="#FFDF7F" width="27.341" height="3.966"/>
	<rect x="371.021" y="3.432" fill="#FFDF7F" width="54.386" height="29.951"/>
	<polygon fill="#FFDF7F" points="443.283,3.432 443.283,12.394 448.973,12.394 448.973,27.543 443.283,27.543 443.283,37.232 
		457.619,37.232 457.619,3.432 	"/>
	<polyline fill="none" stroke="#FFDF7F" stroke-miterlimit="10" points="453.475,201.721 447.846,201.721 447.846,279.932 
		453.475,280.022 	"/>
	<rect x="448.055" y="224.496" fill="#FFDF7F" width="5.42" height="22.729"/>
</g>
<g id="desks">
	<rect x="300.889" y="385.147" fill="#FFB600" width="14.492" height="40.73"/>
	<rect x="328.089" y="383.206" fill="#FFB600" width="27.459" height="14.492"/>
	<rect x="372.5" y="383.363" fill="#FFB600" width="27.46" height="14.492"/>
	<rect x="391.303" y="415.158" fill="#FFB600" width="41.188" height="14.492"/>
	<rect x="426.759" y="374.321" fill="#FFB600" width="13.729" height="27.459"/>
	<rect x="405.795" y="346.452" fill="#FFB600" width="41.188" height="14.492"/>
	<rect x="328.089" y="344.164" fill="#FFB600" width="27.458" height="14.492"/>
	<rect x="379.191" y="316.413" fill="#FFB600" width="14.492" height="41.188"/>
	<rect x="328.089" y="315.179" fill="#FFB600" width="27.459" height="14.492"/>
	<rect x="408.807" y="293.761" fill="#FFB600" width="14.492" height="27.459"/>
	<rect x="369.277" y="270.498" fill="#FFB600" width="54.916" height="14.492"/>
	<rect x="302.224" y="305.448" fill="#FFB600" width="11.821" height="52.455"/>
	<rect x="408.403" y="213.127" fill="#FFB600" width="14.49" height="27.458"/>
	<rect x="369.277" y="188.335" fill="#FFB600" width="54.916" height="14.492"/>
	<rect x="409.862" y="146.794" fill="#FFB600" width="41.06" height="13.705"/>
	<rect x="382.611" y="120.25" fill="#FFB600" width="14.492" height="41.188"/>
	<rect x="415.268" y="77.506" fill="#FFB600" width="14.492" height="54.917"/>
	<rect x="301.348" y="119.869" fill="#FFB600" width="54.917" height="14.492"/>
	<rect x="362.033" y="48.223" fill="#FFB600" width="14.492" height="54.917"/>
	<rect x="293.768" y="51.427" fill="#FFB600" width="54.917" height="14.492"/>
	<rect x="284.354" y="30.252" fill="#FFB600" width="86.666" height="6.335"/>
	<rect x="389.873" y="51.427" fill="#FFB600" width="54.916" height="14.492"/>
	<rect x="446.568" y="77.506" fill="#FFB600" width="5.783" height="18.72"/>
	<rect x="283.381" y="436.715" fill="#FFB600" width="66.495" height="7.273"/>
	<circle fill="#FFDF7F" cx="277.786" cy="277.676" r="6.5"/>
</g>
<g id="decoation">
	<circle fill="#FFDF7F" cx="381.125" cy="229.165" r="6.5"/>
	<rect x="466.596" y="56.651" opacity="0.2" fill="#FFDF7F" width="32.264" height="367.867"/>
</g>
</svg>
